<svg xmlns="http://www.w3.org/2000/svg" width="11.716" height="11.716" viewBox="0 0 11.716 11.716">
  <path id="close-icon" d="M14.179,11.34h0L10.625,7.786l3.554-3.554h0a.367.367,0,0,0,0-.518L12.5,2.035a.367.367,0,0,0-.518,0h0L8.429,5.589,4.874,2.035h0a.367.367,0,0,0-.518,0L2.678,3.714a.367.367,0,0,0,0,.518h0L6.232,7.786,2.678,11.34h0a.367.367,0,0,0,0,.518l1.679,1.679a.367.367,0,0,0,.518,0h0L8.429,9.983l3.554,3.554h0a.367.367,0,0,0,.518,0l1.679-1.679a.367.367,0,0,0,0-.518Z" transform="translate(-2.571 -1.928)"/>
</svg>
