<svg xmlns="http://www.w3.org/2000/svg" width="20.939" height="20.935" viewBox="0 0 20.939 20.935">
  <path id="instagram" d="M10.467,7.338a5.367,5.367,0,1,0,5.367,5.367A5.359,5.359,0,0,0,10.467,7.338Zm0,8.857a3.49,3.49,0,1,1,3.49-3.49,3.5,3.5,0,0,1-3.49,3.49Zm6.839-9.076a1.252,1.252,0,1,1-1.252-1.252A1.249,1.249,0,0,1,17.306,7.118Zm3.555,1.271A6.2,6.2,0,0,0,19.17,4a6.236,6.236,0,0,0-4.386-1.691c-1.728-.1-6.909-.1-8.637,0A6.227,6.227,0,0,0,1.759,4,6.216,6.216,0,0,0,.068,8.384c-.1,1.728-.1,6.909,0,8.637a6.2,6.2,0,0,0,1.691,4.386A6.244,6.244,0,0,0,6.146,23.1c1.728.1,6.909.1,8.637,0a6.2,6.2,0,0,0,4.386-1.691,6.236,6.236,0,0,0,1.691-4.386c.1-1.728.1-6.9,0-8.633ZM18.628,18.876a3.533,3.533,0,0,1-1.99,1.99c-1.378.547-4.648.42-6.171.42s-4.8.121-6.171-.42a3.533,3.533,0,0,1-1.99-1.99c-.547-1.378-.42-4.648-.42-6.171s-.121-4.8.42-6.171A3.533,3.533,0,0,1,4.3,4.544c1.378-.547,4.648-.42,6.171-.42s4.8-.121,6.171.42a3.533,3.533,0,0,1,1.99,1.99c.547,1.378.42,4.648.42,6.171S19.174,17.5,18.628,18.876Z" transform="translate(0.005 -2.238)" fill="#fff"/>
</svg>
