<svg xmlns="http://www.w3.org/2000/svg" width="20.928" height="20.928" viewBox="0 0 20.928 20.928">
  <path id="wa" d="M17.793,5.291A10.374,10.374,0,0,0,1.471,17.806L0,23.178l5.5-1.443A10.339,10.339,0,0,0,10.455,23h0a10.47,10.47,0,0,0,10.469-10.37,10.411,10.411,0,0,0-3.134-7.334ZM10.459,21.248a8.6,8.6,0,0,1-4.391-1.2l-.313-.187-3.261.855.869-3.181-.206-.327a8.636,8.636,0,1,1,16.018-4.583A8.716,8.716,0,0,1,10.459,21.248Zm4.727-6.456c-.257-.131-1.532-.757-1.77-.841s-.411-.131-.584.131-.668.841-.822,1.018-.3.2-.561.065a7.053,7.053,0,0,1-3.527-3.083c-.266-.458.266-.425.761-1.415a.48.48,0,0,0-.023-.453c-.065-.131-.584-1.406-.8-1.925s-.425-.434-.584-.444-.322-.009-.5-.009a.96.96,0,0,0-.691.322,2.912,2.912,0,0,0-.906,2.163A5.076,5.076,0,0,0,6.241,13a11.579,11.579,0,0,0,4.428,3.915,5.071,5.071,0,0,0,3.111.649,2.654,2.654,0,0,0,1.747-1.233,2.167,2.167,0,0,0,.149-1.233C15.616,14.984,15.444,14.919,15.187,14.793Z" transform="translate(0 -2.25)" fill="#fff"/>
</svg>
